# xmcd
#
# Track frame offsets: 
#        150
#        13034
#        25141
#        40179
#        55357
#        77355
#        88577
#        101514
#        114355
#        126681
#        141961
#
# Disc length: 2069 seconds
#
# Revision: 0
# Processed by: cddbd v1.5.1PL0 Copyright (c) Steve Scherf et al.
# Submitted via: ExactAudioCopy v0.90b4
#
DISCID=8b08130b
DTITLE=Michele Holland - Racin' The Angels
DYEAR=1996
DGENRE=Country
TTITLE0=Shoulda, Coulda, Woulda
TTITLE1=Can I Keep You
TTITLE2=Up To No Good
TTITLE3=Country Courthouse Steps
TTITLE4=Racin' The Angels
TTITLE5=One Wish For You
TTITLE6=Forget What I Said
TTITLE7=Sweet Smilin' You
TTITLE8=Hugs and Country Kisses
TTITLE9=Love Me Or Lose Me
TTITLE10=Can't Fool This Fool
EXTD=
EXTT0=
EXTT1=
EXTT2=
EXTT3=
EXTT4=
EXTT5=
EXTT6=
EXTT7=
EXTT8=
EXTT9=
EXTT10=
PLAYORDER=
